<svg xmlns="http://www.w3.org/2000/svg" viewBox="0 0 436 174" width="109" height="44">
  <path fill="#5F6368" d="M188.7 67.5h-28.2V29.7h28.2c10.8 0 19.6 8.5 19.6 18.9s-8.8 18.9-19.6 18.9zm-.5-27.4h-17.1v17h17.1c5.7 0 9.9-4.2 9.9-8.5s-4.2-8.5-9.9-8.5z"/>
  <path fill="#5F6368" d="M224.7 77.4c-11.3 0-20.5-8.5-20.5-20.1 0-11.8 9.2-20.1 20.5-20.1 11.3 0 20.5 8.5 20.5 20.1 0 11.8-9.2 20.1-20.5 20.1zm0-30.4c-6.2 0-10.8 4.9-10.8 10.4s4.5 10.4 10.8 10.4c6.2 0 10.8-4.9 10.8-10.4s-4.5-10.4-10.8-10.4z"/>
  <path fill="#5F6368" d="M270.9 77.4c-11.3 0-20.5-8.5-20.5-20.1 0-11.8 9.2-20.1 20.5-20.1 11.3 0 20.5 8.5 20.5 20.1 0 11.8-9.2 20.1-20.5 20.1zm0-30.4c-6.2 0-10.8 4.9-10.8 10.4s4.5 10.4 10.8 10.4 10.8-4.9 10.8-10.4-4.5-10.4-10.8-10.4z"/>
  <path fill="#5F6368" d="M317.4 76.6V74c-2 2.1-5.8 3.4-9.7 3.4-9.1 0-17.6-7.8-17.6-19.3 0-11.5 8.5-19.3 17.6-19.3 3.9 0 7.7 1.3 9.7 3.4v-2.6h9.5v37zm-8-29.4c-5.5 0-10.3 4.3-10.3 10.8s4.8 10.8 10.3 10.8 10.3-4.3 10.3-10.8-4.8-10.8-10.3-10.8z"/>
  <path fill="#5F6368" d="M345.8 76.6h-9.7V29h9.7z"/>
  <path fill="#5F6368" d="M374.8 77.4c-11.6 0-20.5-8.5-20.5-20.1 0-12 9.3-20.1 19.6-20.1 10.8 0 17.6 7.8 17.6 17.9 0 1.6-.2 3.2-.4 4.5h-27.1c.7 5.3 5.3 8.3 10.8 8.3 4.3 0 7.2-2.1 9-4.9l8.5 4.7c-3.6 5.5-9.7 9.7-17.5 9.7zm-10.3-23.2h17.1c-.7-5.3-4.2-7.6-8.3-7.6-4.7 0-8 2.6-8.8 7.6z"/>
  <path fill="#5F6368" d="M414.2 77.4c-5.8 0-10.6-1.4-14.4-5.4l5.8-5.8c2.5 2.5 5.5 3.4 8.8 3.4 3.4 0 5.5-1.3 5.5-3.4 0-2.5-3.2-3.2-7.2-4-5.8-1.2-12.8-3.2-12.8-11.1 0-6.9 6.2-12 14.7-12 5.3 0 9.9 1.6 13.3 4.7l-5.5 5.8c-2.3-2-5-2.8-8-2.8-3 0-4.9 1.3-4.9 3.2 0 2.3 2.8 2.9 7.2 3.8 5.8 1.2 12.8 3.2 12.8 11.3 0 7.1-6.2 12.3-15.3 12.3z"/>
  <path fill="#4285F4" d="M80.4 66.8l-27.3 47.3c-3.6 6.2-12.6 6.2-16.2 0L9.6 66.8c-3.6-6.2.9-14 8.1-14h54.6c7.2 0 11.7 7.8 8.1 14z"/>
  <path fill="#EA4335" d="M80.4 66.8l-27.3 47.3c-3.6 6.2-12.6 6.2-16.2 0L9.6 66.8"/>
  <path fill="#FBBC04" d="M17.7 52.8h54.6c7.2 0 11.7 7.8 8.1 14L53.1 114c-1.8 3.1-4.9 4.7-8.1 4.7"/>
  <path fill="#34A853" d="M17.7 52.8c-7.2 0-11.7 7.8-8.1 14l27.3 47.3c1.8 3.1 4.9 4.7 8.1 4.7"/>
  <path fill="#4285F4" d="M45 94.8L17.7 52.8l27.3 47.3"/>
  <path fill="#EA4335" d="M45 94.8l27.3-42L45 94.8"/>
</svg>
